<?xml version="1.0" encoding="UTF-8"?>
<svg xmlns="http://www.w3.org/2000/svg" xmlns:xlink="http://www.w3.org/1999/xlink" width="422pt" height="522pt" viewBox="0 0 422 522" version="1.1">
<g id="surface28626">
<rect x="0" y="0" width="422" height="522" style="fill:rgb(100%,100%,100%);fill-opacity:1;stroke:none;"/>
<path style="fill-rule:evenodd;fill:rgb(0%,0%,0%);fill-opacity:1;stroke-width:0.1;stroke-linecap:butt;stroke-linejoin:miter;stroke:rgb(0%,0%,0%);stroke-opacity:1;stroke-miterlimit:10;" d="M 34 3 C 34 3.552344 33.552344 4 33 4 C 32.447656 4 32 3.552344 32 3 C 32 2.447656 32.447656 2 33 2 C 33.552344 2 34 2.447656 34 3 " transform="matrix(20,0,0,20,-259,-39)"/>
<path style="fill:none;stroke-width:0.1;stroke-linecap:butt;stroke-linejoin:miter;stroke:rgb(0%,0%,0%);stroke-opacity:1;stroke-miterlimit:10;" d="M 34 3 C 34 3.552344 33.552344 4 33 4 C 32.447656 4 32 3.552344 32 3 C 32 2.447656 32.447656 2 33 2 C 33.552344 2 34 2.447656 34 3 " transform="matrix(20,0,0,20,-259,-39)"/>
<path style="fill:none;stroke-width:0.1;stroke-linecap:butt;stroke-linejoin:miter;stroke:rgb(100%,0%,0%);stroke-opacity:1;stroke-miterlimit:10;" d="M 33 4 L 33 7.513281 " transform="matrix(20,0,0,20,-259,-39)"/>
<path style="fill-rule:evenodd;fill:rgb(100%,0%,0%);fill-opacity:1;stroke-width:0.1;stroke-linecap:butt;stroke-linejoin:miter;stroke:rgb(100%,0%,0%);stroke-opacity:1;stroke-miterlimit:10;" d="M 33 7.888281 L 32.75 7.388281 L 33 7.513281 L 33.25 7.388281 Z M 33 7.888281 " transform="matrix(20,0,0,20,-259,-39)"/>
<path style="fill-rule:evenodd;fill:rgb(100%,100%,100%);fill-opacity:1;stroke-width:0.1;stroke-linecap:butt;stroke-linejoin:miter;stroke:rgb(0%,0%,0%);stroke-opacity:1;stroke-miterlimit:10;" d="M 34 21 C 34 21.552344 33.552344 22 33 22 C 32.447656 22 32 21.552344 32 21 C 32 20.447656 32.447656 20 33 20 C 33.552344 20 34 20.447656 34 21 " transform="matrix(20,0,0,20,-259,-39)"/>
<path style="fill:none;stroke-width:0.1;stroke-linecap:butt;stroke-linejoin:miter;stroke:rgb(0%,0%,0%);stroke-opacity:1;stroke-miterlimit:10;" d="M 34 21 C 34 21.552344 33.552344 22 33 22 C 32.447656 22 32 21.552344 32 21 C 32 20.447656 32.447656 20 33 20 C 33.552344 20 34 20.447656 34 21 " transform="matrix(20,0,0,20,-259,-39)"/>
<path style="fill:none;stroke-width:0.1;stroke-linecap:butt;stroke-linejoin:miter;stroke:rgb(0%,0%,0%);stroke-opacity:1;stroke-miterlimit:10;" d="M 33 22 L 33 25.513281 " transform="matrix(20,0,0,20,-259,-39)"/>
<path style="fill-rule:evenodd;fill:rgb(0%,0%,0%);fill-opacity:1;stroke-width:0.1;stroke-linecap:butt;stroke-linejoin:miter;stroke:rgb(0%,0%,0%);stroke-opacity:1;stroke-miterlimit:10;" d="M 33 25.888281 L 32.75 25.388281 L 33 25.513281 L 33.25 25.388281 Z M 33 25.888281 " transform="matrix(20,0,0,20,-259,-39)"/>
<path style="fill-rule:evenodd;fill:rgb(0%,100%,0%);fill-opacity:1;stroke-width:0.1;stroke-linecap:butt;stroke-linejoin:miter;stroke:rgb(0%,100%,0%);stroke-opacity:1;stroke-miterlimit:10;" d="M 34 27 C 34 27.552344 33.552344 28 33 28 C 32.447656 28 32 27.552344 32 27 C 32 26.447656 32.447656 26 33 26 C 33.552344 26 34 26.447656 34 27 " transform="matrix(20,0,0,20,-259,-39)"/>
<path style="fill:none;stroke-width:0.1;stroke-linecap:butt;stroke-linejoin:miter;stroke:rgb(0%,100%,0%);stroke-opacity:1;stroke-miterlimit:10;" d="M 34 27 C 34 27.552344 33.552344 28 33 28 C 32.447656 28 32 27.552344 32 27 C 32 26.447656 32.447656 26 33 26 C 33.552344 26 34 26.447656 34 27 " transform="matrix(20,0,0,20,-259,-39)"/>
<path style="fill-rule:evenodd;fill:rgb(100%,100%,100%);fill-opacity:1;stroke-width:0.1;stroke-linecap:butt;stroke-linejoin:miter;stroke:rgb(0%,0%,0%);stroke-opacity:1;stroke-miterlimit:10;" d="M 34 9 C 34 9.552344 33.552344 10 33 10 C 32.447656 10 32 9.552344 32 9 C 32 8.447656 32.447656 8 33 8 C 33.552344 8 34 8.447656 34 9 " transform="matrix(20,0,0,20,-259,-39)"/>
<path style="fill:none;stroke-width:0.1;stroke-linecap:butt;stroke-linejoin:miter;stroke:rgb(0%,0%,0%);stroke-opacity:1;stroke-miterlimit:10;" d="M 34 9 C 34 9.552344 33.552344 10 33 10 C 32.447656 10 32 9.552344 32 9 C 32 8.447656 32.447656 8 33 8 C 33.552344 8 34 8.447656 34 9 " transform="matrix(20,0,0,20,-259,-39)"/>
<path style="fill-rule:evenodd;fill:rgb(100%,100%,100%);fill-opacity:1;stroke-width:0.1;stroke-linecap:butt;stroke-linejoin:miter;stroke:rgb(0%,0%,0%);stroke-opacity:1;stroke-miterlimit:10;" d="M 26 15 C 26 15.552344 25.552344 16 25 16 C 24.447656 16 24 15.552344 24 15 C 24 14.447656 24.447656 14 25 14 C 25.552344 14 26 14.447656 26 15 " transform="matrix(20,0,0,20,-259,-39)"/>
<path style="fill:none;stroke-width:0.1;stroke-linecap:butt;stroke-linejoin:miter;stroke:rgb(0%,0%,0%);stroke-opacity:1;stroke-miterlimit:10;" d="M 26 15 C 26 15.552344 25.552344 16 25 16 C 24.447656 16 24 15.552344 24 15 C 24 14.447656 24.447656 14 25 14 C 25.552344 14 26 14.447656 26 15 " transform="matrix(20,0,0,20,-259,-39)"/>
<path style="fill-rule:evenodd;fill:rgb(100%,100%,100%);fill-opacity:1;stroke-width:0.1;stroke-linecap:butt;stroke-linejoin:miter;stroke:rgb(0%,0%,0%);stroke-opacity:1;stroke-miterlimit:10;" d="M 26 21 C 26 21.552344 25.552344 22 25 22 C 24.447656 22 24 21.552344 24 21 C 24 20.447656 24.447656 20 25 20 C 25.552344 20 26 20.447656 26 21 " transform="matrix(20,0,0,20,-259,-39)"/>
<path style="fill:none;stroke-width:0.1;stroke-linecap:butt;stroke-linejoin:miter;stroke:rgb(0%,0%,0%);stroke-opacity:1;stroke-miterlimit:10;" d="M 26 21 C 26 21.552344 25.552344 22 25 22 C 24.447656 22 24 21.552344 24 21 C 24 20.447656 24.447656 20 25 20 C 25.552344 20 26 20.447656 26 21 " transform="matrix(20,0,0,20,-259,-39)"/>
<path style="fill:none;stroke-width:0.1;stroke-linecap:butt;stroke-linejoin:miter;stroke:rgb(0%,0%,0%);stroke-opacity:1;stroke-miterlimit:10;" d="M 32.159961 9.630078 L 26.229492 14.07793 " transform="matrix(20,0,0,20,-259,-39)"/>
<path style="fill-rule:evenodd;fill:rgb(0%,0%,0%);fill-opacity:1;stroke-width:0.1;stroke-linecap:butt;stroke-linejoin:miter;stroke:rgb(0%,0%,0%);stroke-opacity:1;stroke-miterlimit:10;" d="M 25.929492 14.30293 L 26.179492 13.80293 L 26.229492 14.07793 L 26.479492 14.20293 Z M 25.929492 14.30293 " transform="matrix(20,0,0,20,-259,-39)"/>
<path style="fill:none;stroke-width:0.1;stroke-linecap:butt;stroke-linejoin:miter;stroke:rgb(0%,0%,0%);stroke-opacity:1;stroke-miterlimit:10;" d="M 25 16 L 25 19.513281 " transform="matrix(20,0,0,20,-259,-39)"/>
<path style="fill-rule:evenodd;fill:rgb(0%,0%,0%);fill-opacity:1;stroke-width:0.1;stroke-linecap:butt;stroke-linejoin:miter;stroke:rgb(0%,0%,0%);stroke-opacity:1;stroke-miterlimit:10;" d="M 25 19.888281 L 24.75 19.388281 L 25 19.513281 L 25.25 19.388281 Z M 25 19.888281 " transform="matrix(20,0,0,20,-259,-39)"/>
<path style="fill-rule:evenodd;fill:rgb(0%,0%,0%);fill-opacity:1;stroke-width:0.1;stroke-linecap:butt;stroke-linejoin:miter;stroke:rgb(0%,0%,0%);stroke-opacity:1;stroke-miterlimit:10;" d="M 15 3 C 15 3.552344 14.552344 4 14 4 C 13.447656 4 13 3.552344 13 3 C 13 2.447656 13.447656 2 14 2 C 14.552344 2 15 2.447656 15 3 " transform="matrix(20,0,0,20,-259,-39)"/>
<path style="fill:none;stroke-width:0.1;stroke-linecap:butt;stroke-linejoin:miter;stroke:rgb(0%,0%,0%);stroke-opacity:1;stroke-miterlimit:10;" d="M 15 3 C 15 3.552344 14.552344 4 14 4 C 13.447656 4 13 3.552344 13 3 C 13 2.447656 13.447656 2 14 2 C 14.552344 2 15 2.447656 15 3 " transform="matrix(20,0,0,20,-259,-39)"/>
<path style="fill:none;stroke-width:0.1;stroke-linecap:butt;stroke-linejoin:miter;stroke:rgb(100%,0%,0%);stroke-opacity:1;stroke-miterlimit:10;" d="M 14 4 L 14 7.513281 " transform="matrix(20,0,0,20,-259,-39)"/>
<path style="fill-rule:evenodd;fill:rgb(100%,0%,0%);fill-opacity:1;stroke-width:0.1;stroke-linecap:butt;stroke-linejoin:miter;stroke:rgb(100%,0%,0%);stroke-opacity:1;stroke-miterlimit:10;" d="M 14 7.888281 L 13.75 7.388281 L 14 7.513281 L 14.25 7.388281 Z M 14 7.888281 " transform="matrix(20,0,0,20,-259,-39)"/>
<path style="fill-rule:evenodd;fill:rgb(100%,100%,100%);fill-opacity:1;stroke-width:0.1;stroke-linecap:butt;stroke-linejoin:miter;stroke:rgb(0%,0%,0%);stroke-opacity:1;stroke-miterlimit:10;" d="M 15 15 C 15 15.552344 14.552344 16 14 16 C 13.447656 16 13 15.552344 13 15 C 13 14.447656 13.447656 14 14 14 C 14.552344 14 15 14.447656 15 15 " transform="matrix(20,0,0,20,-259,-39)"/>
<path style="fill:none;stroke-width:0.1;stroke-linecap:butt;stroke-linejoin:miter;stroke:rgb(0%,0%,0%);stroke-opacity:1;stroke-miterlimit:10;" d="M 15 15 C 15 15.552344 14.552344 16 14 16 C 13.447656 16 13 15.552344 13 15 C 13 14.447656 13.447656 14 14 14 C 14.552344 14 15 14.447656 15 15 " transform="matrix(20,0,0,20,-259,-39)"/>
<path style="fill:none;stroke-width:0.1;stroke-linecap:butt;stroke-linejoin:miter;stroke:rgb(0%,0%,0%);stroke-opacity:1;stroke-miterlimit:10;" d="M 14 16 L 14 19.513281 " transform="matrix(20,0,0,20,-259,-39)"/>
<path style="fill-rule:evenodd;fill:rgb(0%,0%,0%);fill-opacity:1;stroke-width:0.1;stroke-linecap:butt;stroke-linejoin:miter;stroke:rgb(0%,0%,0%);stroke-opacity:1;stroke-miterlimit:10;" d="M 14 19.888281 L 13.75 19.388281 L 14 19.513281 L 14.25 19.388281 Z M 14 19.888281 " transform="matrix(20,0,0,20,-259,-39)"/>
<path style="fill-rule:evenodd;fill:rgb(100%,100%,100%);fill-opacity:1;stroke-width:0.1;stroke-linecap:butt;stroke-linejoin:miter;stroke:rgb(0%,0%,0%);stroke-opacity:1;stroke-miterlimit:10;" d="M 15 9 C 15 9.552344 14.552344 10 14 10 C 13.447656 10 13 9.552344 13 9 C 13 8.447656 13.447656 8 14 8 C 14.552344 8 15 8.447656 15 9 " transform="matrix(20,0,0,20,-259,-39)"/>
<path style="fill:none;stroke-width:0.1;stroke-linecap:butt;stroke-linejoin:miter;stroke:rgb(0%,0%,0%);stroke-opacity:1;stroke-miterlimit:10;" d="M 15 9 C 15 9.552344 14.552344 10 14 10 C 13.447656 10 13 9.552344 13 9 C 13 8.447656 13.447656 8 14 8 C 14.552344 8 15 8.447656 15 9 " transform="matrix(20,0,0,20,-259,-39)"/>
<path style="fill:none;stroke-width:0.1;stroke-linecap:butt;stroke-linejoin:miter;stroke:rgb(62.7451%,12.54902%,94.117647%);stroke-opacity:1;stroke-miterlimit:10;" d="M 14 10 L 14 13.513281 " transform="matrix(20,0,0,20,-259,-39)"/>
<path style="fill-rule:evenodd;fill:rgb(62.7451%,12.54902%,94.117647%);fill-opacity:1;stroke-width:0.1;stroke-linecap:butt;stroke-linejoin:miter;stroke:rgb(62.7451%,12.54902%,94.117647%);stroke-opacity:1;stroke-miterlimit:10;" d="M 14 13.888281 L 13.75 13.388281 L 14 13.513281 L 14.25 13.388281 Z M 14 13.888281 " transform="matrix(20,0,0,20,-259,-39)"/>
<path style="fill-rule:evenodd;fill:rgb(0%,100%,0%);fill-opacity:1;stroke-width:0.1;stroke-linecap:butt;stroke-linejoin:miter;stroke:rgb(0%,100%,0%);stroke-opacity:1;stroke-miterlimit:10;" d="M 15 21 C 15 21.552344 14.552344 22 14 22 C 13.447656 22 13 21.552344 13 21 C 13 20.447656 13.447656 20 14 20 C 14.552344 20 15 20.447656 15 21 " transform="matrix(20,0,0,20,-259,-39)"/>
<path style="fill:none;stroke-width:0.1;stroke-linecap:butt;stroke-linejoin:miter;stroke:rgb(0%,100%,0%);stroke-opacity:1;stroke-miterlimit:10;" d="M 15 21 C 15 21.552344 14.552344 22 14 22 C 13.447656 22 13 21.552344 13 21 C 13 20.447656 13.447656 20 14 20 C 14.552344 20 15 20.447656 15 21 " transform="matrix(20,0,0,20,-259,-39)"/>
<path style="fill-rule:evenodd;fill:rgb(100%,100%,100%);fill-opacity:1;stroke-width:0.1;stroke-linecap:butt;stroke-linejoin:miter;stroke:rgb(0%,0%,0%);stroke-opacity:1;stroke-miterlimit:10;" d="M 34 15 C 34 15.552344 33.552344 16 33 16 C 32.447656 16 32 15.552344 32 15 C 32 14.447656 32.447656 14 33 14 C 33.552344 14 34 14.447656 34 15 " transform="matrix(20,0,0,20,-259,-39)"/>
<path style="fill:none;stroke-width:0.1;stroke-linecap:butt;stroke-linejoin:miter;stroke:rgb(0%,0%,0%);stroke-opacity:1;stroke-miterlimit:10;" d="M 34 15 C 34 15.552344 33.552344 16 33 16 C 32.447656 16 32 15.552344 32 15 C 32 14.447656 32.447656 14 33 14 C 33.552344 14 34 14.447656 34 15 " transform="matrix(20,0,0,20,-259,-39)"/>
<path style="fill:none;stroke-width:0.1;stroke-linecap:butt;stroke-linejoin:miter;stroke:rgb(0%,0%,100%);stroke-opacity:1;stroke-miterlimit:10;" d="M 25.840039 20.369922 L 31.770508 15.92207 " transform="matrix(20,0,0,20,-259,-39)"/>
<path style="fill-rule:evenodd;fill:rgb(0%,0%,100%);fill-opacity:1;stroke-width:0.1;stroke-linecap:butt;stroke-linejoin:miter;stroke:rgb(0%,0%,100%);stroke-opacity:1;stroke-miterlimit:10;" d="M 32.070508 15.69707 L 31.820508 16.19707 L 31.770508 15.92207 L 31.520508 15.79707 Z M 32.070508 15.69707 " transform="matrix(20,0,0,20,-259,-39)"/>
<path style="fill:none;stroke-width:0.1;stroke-linecap:butt;stroke-linejoin:miter;stroke:rgb(62.7451%,12.54902%,94.117647%);stroke-opacity:1;stroke-miterlimit:10;" d="M 33 16 L 33 19.513281 " transform="matrix(20,0,0,20,-259,-39)"/>
<path style="fill-rule:evenodd;fill:rgb(62.7451%,12.54902%,94.117647%);fill-opacity:1;stroke-width:0.1;stroke-linecap:butt;stroke-linejoin:miter;stroke:rgb(62.7451%,12.54902%,94.117647%);stroke-opacity:1;stroke-miterlimit:10;" d="M 33 19.888281 L 32.75 19.388281 L 33 19.513281 L 33.25 19.388281 Z M 33 19.888281 " transform="matrix(20,0,0,20,-259,-39)"/>
<path style="fill:none;stroke-width:0.1;stroke-linecap:butt;stroke-linejoin:miter;stroke:rgb(0%,0%,100%);stroke-opacity:1;stroke-miterlimit:10;" d="M 33 10 L 33 13.513281 " transform="matrix(20,0,0,20,-259,-39)"/>
<path style="fill-rule:evenodd;fill:rgb(0%,0%,100%);fill-opacity:1;stroke-width:0.1;stroke-linecap:butt;stroke-linejoin:miter;stroke:rgb(0%,0%,100%);stroke-opacity:1;stroke-miterlimit:10;" d="M 33 13.888281 L 32.75 13.388281 L 33 13.513281 L 33.25 13.388281 Z M 33 13.888281 " transform="matrix(20,0,0,20,-259,-39)"/>
</g>
</svg>
