<?xml version="1.0" encoding="UTF-8"?>
<svg xmlns="http://www.w3.org/2000/svg" xmlns:xlink="http://www.w3.org/1999/xlink" width="522pt" height="642pt" viewBox="0 0 522 642" version="1.1">
<g id="surface9431">
<rect x="0" y="0" width="522" height="642" style="fill:rgb(100%,100%,100%);fill-opacity:1;stroke:none;"/>
<path style="fill-rule:evenodd;fill:rgb(0%,0%,0%);fill-opacity:1;stroke-width:0.1;stroke-linecap:butt;stroke-linejoin:miter;stroke:rgb(0%,0%,0%);stroke-opacity:1;stroke-miterlimit:10;" d="M 21 4 C 21 4.552344 20.552344 5 20 5 C 19.447656 5 19 4.552344 19 4 C 19 3.447656 19.447656 3 20 3 C 20.552344 3 21 3.447656 21 4 " transform="matrix(20,0,0,20,-219,-59)"/>
<path style="fill:none;stroke-width:0.1;stroke-linecap:butt;stroke-linejoin:miter;stroke:rgb(0%,0%,0%);stroke-opacity:1;stroke-miterlimit:10;" d="M 21 4 C 21 4.552344 20.552344 5 20 5 C 19.447656 5 19 4.552344 19 4 C 19 3.447656 19.447656 3 20 3 C 20.552344 3 21 3.447656 21 4 " transform="matrix(20,0,0,20,-219,-59)"/>
<path style="fill:none;stroke-width:0.1;stroke-linecap:butt;stroke-linejoin:miter;stroke:rgb(0%,0%,0%);stroke-opacity:1;stroke-miterlimit:10;" d="M 20 5 L 20 8.513281 " transform="matrix(20,0,0,20,-219,-59)"/>
<path style="fill-rule:evenodd;fill:rgb(0%,0%,0%);fill-opacity:1;stroke-width:0.1;stroke-linecap:butt;stroke-linejoin:miter;stroke:rgb(0%,0%,0%);stroke-opacity:1;stroke-miterlimit:10;" d="M 20 8.888281 L 19.75 8.388281 L 20 8.513281 L 20.25 8.388281 Z M 20 8.888281 " transform="matrix(20,0,0,20,-219,-59)"/>
<path style="fill-rule:evenodd;fill:rgb(100%,100%,100%);fill-opacity:1;stroke-width:0.1;stroke-linecap:butt;stroke-linejoin:miter;stroke:rgb(0%,0%,0%);stroke-opacity:1;stroke-miterlimit:10;" d="M 21 16 C 21 16.552344 20.552344 17 20 17 C 19.447656 17 19 16.552344 19 16 C 19 15.447656 19.447656 15 20 15 C 20.552344 15 21 15.447656 21 16 " transform="matrix(20,0,0,20,-219,-59)"/>
<path style="fill:none;stroke-width:0.1;stroke-linecap:butt;stroke-linejoin:miter;stroke:rgb(0%,0%,0%);stroke-opacity:1;stroke-miterlimit:10;" d="M 21 16 C 21 16.552344 20.552344 17 20 17 C 19.447656 17 19 16.552344 19 16 C 19 15.447656 19.447656 15 20 15 C 20.552344 15 21 15.447656 21 16 " transform="matrix(20,0,0,20,-219,-59)"/>
<path style="fill:none;stroke-width:0.1;stroke-linecap:butt;stroke-linejoin:miter;stroke:rgb(0%,0%,0%);stroke-opacity:1;stroke-miterlimit:10;" d="M 20 17 L 20 20.513281 " transform="matrix(20,0,0,20,-219,-59)"/>
<path style="fill-rule:evenodd;fill:rgb(0%,0%,0%);fill-opacity:1;stroke-width:0.1;stroke-linecap:butt;stroke-linejoin:miter;stroke:rgb(0%,0%,0%);stroke-opacity:1;stroke-miterlimit:10;" d="M 20 20.888281 L 19.75 20.388281 L 20 20.513281 L 20.25 20.388281 Z M 20 20.888281 " transform="matrix(20,0,0,20,-219,-59)"/>
<path style="fill-rule:evenodd;fill:rgb(100%,100%,100%);fill-opacity:1;stroke-width:0.1;stroke-linecap:butt;stroke-linejoin:miter;stroke:rgb(0%,0%,0%);stroke-opacity:1;stroke-miterlimit:10;" d="M 21 22 C 21 22.552344 20.552344 23 20 23 C 19.447656 23 19 22.552344 19 22 C 19 21.447656 19.447656 21 20 21 C 20.552344 21 21 21.447656 21 22 " transform="matrix(20,0,0,20,-219,-59)"/>
<path style="fill:none;stroke-width:0.1;stroke-linecap:butt;stroke-linejoin:miter;stroke:rgb(0%,0%,0%);stroke-opacity:1;stroke-miterlimit:10;" d="M 21 22 C 21 22.552344 20.552344 23 20 23 C 19.447656 23 19 22.552344 19 22 C 19 21.447656 19.447656 21 20 21 C 20.552344 21 21 21.447656 21 22 " transform="matrix(20,0,0,20,-219,-59)"/>
<path style="fill:none;stroke-width:0.1;stroke-linecap:butt;stroke-linejoin:miter;stroke:rgb(0%,0%,0%);stroke-opacity:1;stroke-miterlimit:10;" d="M 20 23 L 20 26.513281 " transform="matrix(20,0,0,20,-219,-59)"/>
<path style="fill-rule:evenodd;fill:rgb(0%,0%,0%);fill-opacity:1;stroke-width:0.1;stroke-linecap:butt;stroke-linejoin:miter;stroke:rgb(0%,0%,0%);stroke-opacity:1;stroke-miterlimit:10;" d="M 20 26.888281 L 19.75 26.388281 L 20 26.513281 L 20.25 26.388281 Z M 20 26.888281 " transform="matrix(20,0,0,20,-219,-59)"/>
<path style="fill-rule:evenodd;fill:rgb(100%,100%,100%);fill-opacity:1;stroke-width:0.1;stroke-linecap:butt;stroke-linejoin:miter;stroke:rgb(0%,0%,0%);stroke-opacity:1;stroke-miterlimit:10;" d="M 21 28 C 21 28.552344 20.552344 29 20 29 C 19.447656 29 19 28.552344 19 28 C 19 27.447656 19.447656 27 20 27 C 20.552344 27 21 27.447656 21 28 " transform="matrix(20,0,0,20,-219,-59)"/>
<path style="fill:none;stroke-width:0.1;stroke-linecap:butt;stroke-linejoin:miter;stroke:rgb(0%,0%,0%);stroke-opacity:1;stroke-miterlimit:10;" d="M 21 28 C 21 28.552344 20.552344 29 20 29 C 19.447656 29 19 28.552344 19 28 C 19 27.447656 19.447656 27 20 27 C 20.552344 27 21 27.447656 21 28 " transform="matrix(20,0,0,20,-219,-59)"/>
<path style="fill:none;stroke-width:0.1;stroke-linecap:butt;stroke-linejoin:miter;stroke:rgb(0%,0%,0%);stroke-opacity:1;stroke-miterlimit:10;" d="M 20 29 L 20 32.513281 " transform="matrix(20,0,0,20,-219,-59)"/>
<path style="fill-rule:evenodd;fill:rgb(0%,0%,0%);fill-opacity:1;stroke-width:0.1;stroke-linecap:butt;stroke-linejoin:miter;stroke:rgb(0%,0%,0%);stroke-opacity:1;stroke-miterlimit:10;" d="M 20 32.888281 L 19.75 32.388281 L 20 32.513281 L 20.25 32.388281 Z M 20 32.888281 " transform="matrix(20,0,0,20,-219,-59)"/>
<path style="fill-rule:evenodd;fill:rgb(0%,100%,0%);fill-opacity:1;stroke-width:0.1;stroke-linecap:butt;stroke-linejoin:miter;stroke:rgb(0%,100%,0%);stroke-opacity:1;stroke-miterlimit:10;" d="M 21 34 C 21 34.552344 20.552344 35 20 35 C 19.447656 35 19 34.552344 19 34 C 19 33.447656 19.447656 33 20 33 C 20.552344 33 21 33.447656 21 34 " transform="matrix(20,0,0,20,-219,-59)"/>
<path style="fill:none;stroke-width:0.1;stroke-linecap:butt;stroke-linejoin:miter;stroke:rgb(0%,100%,0%);stroke-opacity:1;stroke-miterlimit:10;" d="M 21 34 C 21 34.552344 20.552344 35 20 35 C 19.447656 35 19 34.552344 19 34 C 19 33.447656 19.447656 33 20 33 C 20.552344 33 21 33.447656 21 34 " transform="matrix(20,0,0,20,-219,-59)"/>
<path style="fill-rule:evenodd;fill:rgb(100%,100%,100%);fill-opacity:1;stroke-width:0.1;stroke-linecap:butt;stroke-linejoin:miter;stroke:rgb(0%,0%,0%);stroke-opacity:1;stroke-miterlimit:10;" d="M 29 28 C 29 28.552344 28.552344 29 28 29 C 27.447656 29 27 28.552344 27 28 C 27 27.447656 27.447656 27 28 27 C 28.552344 27 29 27.447656 29 28 " transform="matrix(20,0,0,20,-219,-59)"/>
<path style="fill:none;stroke-width:0.1;stroke-linecap:butt;stroke-linejoin:miter;stroke:rgb(0%,0%,0%);stroke-opacity:1;stroke-miterlimit:10;" d="M 29 28 C 29 28.552344 28.552344 29 28 29 C 27.447656 29 27 28.552344 27 28 C 27 27.447656 27.447656 27 28 27 C 28.552344 27 29 27.447656 29 28 " transform="matrix(20,0,0,20,-219,-59)"/>
<path style="fill:none;stroke-width:0.1;stroke-linecap:butt;stroke-linejoin:miter;stroke:rgb(0%,0%,0%);stroke-opacity:1;stroke-miterlimit:10;" d="M 27.159961 27.369922 L 21.229492 22.92207 " transform="matrix(20,0,0,20,-219,-59)"/>
<path style="fill-rule:evenodd;fill:rgb(0%,0%,0%);fill-opacity:1;stroke-width:0.1;stroke-linecap:butt;stroke-linejoin:miter;stroke:rgb(0%,0%,0%);stroke-opacity:1;stroke-miterlimit:10;" d="M 20.929492 22.69707 L 21.479492 22.79707 L 21.229492 22.92207 L 21.179492 23.19707 Z M 20.929492 22.69707 " transform="matrix(20,0,0,20,-219,-59)"/>
<path style="fill:none;stroke-width:0.1;stroke-linecap:butt;stroke-linejoin:miter;stroke:rgb(0%,0%,0%);stroke-opacity:1;stroke-miterlimit:10;" d="M 28 23 L 28 26.513281 " transform="matrix(20,0,0,20,-219,-59)"/>
<path style="fill-rule:evenodd;fill:rgb(0%,0%,0%);fill-opacity:1;stroke-width:0.1;stroke-linecap:butt;stroke-linejoin:miter;stroke:rgb(0%,0%,0%);stroke-opacity:1;stroke-miterlimit:10;" d="M 28 26.888281 L 27.75 26.388281 L 28 26.513281 L 28.25 26.388281 Z M 28 26.888281 " transform="matrix(20,0,0,20,-219,-59)"/>
<path style="fill:none;stroke-width:0.1;stroke-linecap:butt;stroke-linejoin:miter;stroke:rgb(0%,0%,0%);stroke-opacity:1;stroke-miterlimit:10;" d="M 20.839844 16.629883 L 26.770508 21.077734 " transform="matrix(20,0,0,20,-219,-59)"/>
<path style="fill-rule:evenodd;fill:rgb(0%,0%,0%);fill-opacity:1;stroke-width:0.1;stroke-linecap:butt;stroke-linejoin:miter;stroke:rgb(0%,0%,0%);stroke-opacity:1;stroke-miterlimit:10;" d="M 27.070508 21.302734 L 26.520508 21.202734 L 26.770508 21.077734 L 26.820508 20.802734 Z M 27.070508 21.302734 " transform="matrix(20,0,0,20,-219,-59)"/>
<path style="fill-rule:evenodd;fill:rgb(100%,100%,100%);fill-opacity:1;stroke-width:0.1;stroke-linecap:butt;stroke-linejoin:miter;stroke:rgb(0%,0%,0%);stroke-opacity:1;stroke-miterlimit:10;" d="M 21 10 C 21 10.552344 20.552344 11 20 11 C 19.447656 11 19 10.552344 19 10 C 19 9.447656 19.447656 9 20 9 C 20.552344 9 21 9.447656 21 10 " transform="matrix(20,0,0,20,-219,-59)"/>
<path style="fill:none;stroke-width:0.1;stroke-linecap:butt;stroke-linejoin:miter;stroke:rgb(0%,0%,0%);stroke-opacity:1;stroke-miterlimit:10;" d="M 21 10 C 21 10.552344 20.552344 11 20 11 C 19.447656 11 19 10.552344 19 10 C 19 9.447656 19.447656 9 20 9 C 20.552344 9 21 9.447656 21 10 " transform="matrix(20,0,0,20,-219,-59)"/>
<path style="fill:none;stroke-width:0.1;stroke-linecap:butt;stroke-linejoin:miter;stroke:rgb(0%,0%,0%);stroke-opacity:1;stroke-miterlimit:10;" d="M 20 11 L 20 14.513281 " transform="matrix(20,0,0,20,-219,-59)"/>
<path style="fill-rule:evenodd;fill:rgb(0%,0%,0%);fill-opacity:1;stroke-width:0.1;stroke-linecap:butt;stroke-linejoin:miter;stroke:rgb(0%,0%,0%);stroke-opacity:1;stroke-miterlimit:10;" d="M 20 14.888281 L 19.75 14.388281 L 20 14.513281 L 20.25 14.388281 Z M 20 14.888281 " transform="matrix(20,0,0,20,-219,-59)"/>
<path style="fill-rule:evenodd;fill:rgb(100%,100%,100%);fill-opacity:1;stroke-width:0.1;stroke-linecap:butt;stroke-linejoin:miter;stroke:rgb(0%,0%,0%);stroke-opacity:1;stroke-miterlimit:10;" d="M 37 22 C 37 22.552344 36.552344 23 36 23 C 35.447656 23 35 22.552344 35 22 C 35 21.447656 35.447656 21 36 21 C 36.552344 21 37 21.447656 37 22 " transform="matrix(20,0,0,20,-219,-59)"/>
<path style="fill:none;stroke-width:0.1;stroke-linecap:butt;stroke-linejoin:miter;stroke:rgb(0%,0%,0%);stroke-opacity:1;stroke-miterlimit:10;" d="M 37 22 C 37 22.552344 36.552344 23 36 23 C 35.447656 23 35 22.552344 35 22 C 35 21.447656 35.447656 21 36 21 C 36.552344 21 37 21.447656 37 22 " transform="matrix(20,0,0,20,-219,-59)"/>
<path style="fill:none;stroke-width:0.1;stroke-linecap:butt;stroke-linejoin:miter;stroke:rgb(0%,0%,0%);stroke-opacity:1;stroke-miterlimit:10;" d="M 35 22 L 21.486719 22 " transform="matrix(20,0,0,20,-219,-59)"/>
<path style="fill-rule:evenodd;fill:rgb(0%,0%,0%);fill-opacity:1;stroke-width:0.1;stroke-linecap:butt;stroke-linejoin:miter;stroke:rgb(0%,0%,0%);stroke-opacity:1;stroke-miterlimit:10;" d="M 21.111719 22 L 21.611719 21.75 L 21.486719 22 L 21.611719 22.25 Z M 21.111719 22 " transform="matrix(20,0,0,20,-219,-59)"/>
<path style="fill-rule:evenodd;fill:rgb(100%,100%,100%);fill-opacity:1;stroke-width:0.1;stroke-linecap:butt;stroke-linejoin:miter;stroke:rgb(0%,0%,0%);stroke-opacity:1;stroke-miterlimit:10;" d="M 29 22 C 29 22.552344 28.552344 23 28 23 C 27.447656 23 27 22.552344 27 22 C 27 21.447656 27.447656 21 28 21 C 28.552344 21 29 21.447656 29 22 " transform="matrix(20,0,0,20,-219,-59)"/>
<path style="fill:none;stroke-width:0.1;stroke-linecap:butt;stroke-linejoin:miter;stroke:rgb(0%,0%,0%);stroke-opacity:1;stroke-miterlimit:10;" d="M 29 22 C 29 22.552344 28.552344 23 28 23 C 27.447656 23 27 22.552344 27 22 C 27 21.447656 27.447656 21 28 21 C 28.552344 21 29 21.447656 29 22 " transform="matrix(20,0,0,20,-219,-59)"/>
<path style="fill:none;stroke-width:0.1;stroke-linecap:butt;stroke-linejoin:miter;stroke:rgb(0%,0%,0%);stroke-opacity:1;stroke-miterlimit:10;" d="M 20.983008 16.368555 L 34.561328 21.460547 " transform="matrix(20,0,0,20,-219,-59)"/>
<path style="fill-rule:evenodd;fill:rgb(0%,0%,0%);fill-opacity:1;stroke-width:0.1;stroke-linecap:butt;stroke-linejoin:miter;stroke:rgb(0%,0%,0%);stroke-opacity:1;stroke-miterlimit:10;" d="M 34.9125 21.592187 L 34.356445 21.650586 L 34.561328 21.460547 L 34.532031 21.182422 Z M 34.9125 21.592187 " transform="matrix(20,0,0,20,-219,-59)"/>
<path style="fill-rule:evenodd;fill:rgb(0%,100%,0%);fill-opacity:1;stroke-width:0.1;stroke-linecap:butt;stroke-linejoin:miter;stroke:rgb(0%,100%,0%);stroke-opacity:1;stroke-miterlimit:10;" d="M 13 34 C 13 34.552344 12.552344 35 12 35 C 11.447656 35 11 34.552344 11 34 C 11 33.447656 11.447656 33 12 33 C 12.552344 33 13 33.447656 13 34 " transform="matrix(20,0,0,20,-219,-59)"/>
<path style="fill:none;stroke-width:0.1;stroke-linecap:butt;stroke-linejoin:miter;stroke:rgb(0%,100%,0%);stroke-opacity:1;stroke-miterlimit:10;" d="M 13 34 C 13 34.552344 12.552344 35 12 35 C 11.447656 35 11 34.552344 11 34 C 11 33.447656 11.447656 33 12 33 C 12.552344 33 13 33.447656 13 34 " transform="matrix(20,0,0,20,-219,-59)"/>
<path style="fill-rule:evenodd;fill:rgb(0%,0%,0%);fill-opacity:1;stroke-width:0.1;stroke-linecap:butt;stroke-linejoin:miter;stroke:rgb(0%,0%,0%);stroke-opacity:1;stroke-miterlimit:10;" d="M 13 28 C 13 28.552344 12.552344 29 12 29 C 11.447656 29 11 28.552344 11 28 C 11 27.447656 11.447656 27 12 27 C 12.552344 27 13 27.447656 13 28 " transform="matrix(20,0,0,20,-219,-59)"/>
<path style="fill:none;stroke-width:0.1;stroke-linecap:butt;stroke-linejoin:miter;stroke:rgb(0%,0%,0%);stroke-opacity:1;stroke-miterlimit:10;" d="M 13 28 C 13 28.552344 12.552344 29 12 29 C 11.447656 29 11 28.552344 11 28 C 11 27.447656 11.447656 27 12 27 C 12.552344 27 13 27.447656 13 28 " transform="matrix(20,0,0,20,-219,-59)"/>
<path style="fill:none;stroke-width:0.1;stroke-linecap:butt;stroke-linejoin:miter;stroke:rgb(0%,0%,0%);stroke-opacity:1;stroke-miterlimit:10;" d="M 12 29 L 12 32.513281 " transform="matrix(20,0,0,20,-219,-59)"/>
<path style="fill-rule:evenodd;fill:rgb(0%,0%,0%);fill-opacity:1;stroke-width:0.1;stroke-linecap:butt;stroke-linejoin:miter;stroke:rgb(0%,0%,0%);stroke-opacity:1;stroke-miterlimit:10;" d="M 12 32.888281 L 11.75 32.388281 L 12 32.513281 L 12.25 32.388281 Z M 12 32.888281 " transform="matrix(20,0,0,20,-219,-59)"/>
<path style="fill:none;stroke-width:0.1;stroke-linecap:butt;stroke-linejoin:miter;stroke:rgb(0%,0%,0%);stroke-opacity:1;stroke-dasharray:1,1;stroke-miterlimit:10;" d="M 19.159961 22.630078 L 13.229492 27.07793 " transform="matrix(20,0,0,20,-219,-59)"/>
<path style="fill-rule:evenodd;fill:rgb(0%,0%,0%);fill-opacity:1;stroke-width:0.1;stroke-linecap:butt;stroke-linejoin:miter;stroke:rgb(0%,0%,0%);stroke-opacity:1;stroke-miterlimit:10;" d="M 12.929492 27.30293 L 13.179492 26.80293 L 13.229492 27.07793 L 13.479492 27.20293 Z M 12.929492 27.30293 " transform="matrix(20,0,0,20,-219,-59)"/>
<path style="fill:none;stroke-width:0.1;stroke-linecap:butt;stroke-linejoin:miter;stroke:rgb(0%,0%,0%);stroke-opacity:1;stroke-dasharray:1,1;stroke-miterlimit:10;" d="M 12.840039 33.369922 L 18.770508 28.92207 " transform="matrix(20,0,0,20,-219,-59)"/>
<path style="fill-rule:evenodd;fill:rgb(0%,0%,0%);fill-opacity:1;stroke-width:0.1;stroke-linecap:butt;stroke-linejoin:miter;stroke:rgb(0%,0%,0%);stroke-opacity:1;stroke-miterlimit:10;" d="M 19.070508 28.69707 L 18.820508 29.19707 L 18.770508 28.92207 L 18.520508 28.79707 Z M 19.070508 28.69707 " transform="matrix(20,0,0,20,-219,-59)"/>
<path style="fill:none;stroke-width:0.1;stroke-linecap:butt;stroke-linejoin:miter;stroke:rgb(62.7451%,12.54902%,94.117647%);stroke-opacity:1;stroke-miterlimit:10;" d="M 19.45 6.45 L 20.566992 6.45 L 20.566992 7.604102 L 19.45 7.604102 Z M 19.45 6.45 " transform="matrix(20,0,0,20,-219,-59)"/>
<path style="fill:none;stroke-width:0.1;stroke-linecap:butt;stroke-linejoin:miter;stroke:rgb(62.7451%,12.54902%,94.117647%);stroke-opacity:1;stroke-miterlimit:10;" d="M 19.45 6.45 L 20.566992 6.45 L 20.566992 7.604102 L 19.45 7.604102 Z M 19.45 6.45 " transform="matrix(20,0,0,20,-219,-59)"/>
<path style="fill:none;stroke-width:0.1;stroke-linecap:butt;stroke-linejoin:miter;stroke:rgb(62.7451%,12.54902%,94.117647%);stroke-opacity:1;stroke-miterlimit:10;" d="M 19.450977 12.466016 L 20.567969 12.466016 L 20.567969 13.620117 L 19.450977 13.620117 Z M 19.450977 12.466016 " transform="matrix(20,0,0,20,-219,-59)"/>
<path style="fill:none;stroke-width:0.1;stroke-linecap:butt;stroke-linejoin:miter;stroke:rgb(62.7451%,12.54902%,94.117647%);stroke-opacity:1;stroke-miterlimit:10;" d="M 19.450977 12.466016 L 20.567969 12.466016 L 20.567969 13.620117 L 19.450977 13.620117 Z M 19.450977 12.466016 " transform="matrix(20,0,0,20,-219,-59)"/>
<path style="fill-rule:evenodd;fill:rgb(100%,100%,100%);fill-opacity:1;stroke-width:0.1;stroke-linecap:butt;stroke-linejoin:miter;stroke:rgb(0%,0%,0%);stroke-opacity:1;stroke-miterlimit:10;" d="M 29 34 C 29 34.552344 28.552344 35 28 35 C 27.447656 35 27 34.552344 27 34 C 27 33.447656 27.447656 33 28 33 C 28.552344 33 29 33.447656 29 34 " transform="matrix(20,0,0,20,-219,-59)"/>
<path style="fill:none;stroke-width:0.1;stroke-linecap:butt;stroke-linejoin:miter;stroke:rgb(0%,0%,0%);stroke-opacity:1;stroke-miterlimit:10;" d="M 29 34 C 29 34.552344 28.552344 35 28 35 C 27.447656 35 27 34.552344 27 34 C 27 33.447656 27.447656 33 28 33 C 28.552344 33 29 33.447656 29 34 " transform="matrix(20,0,0,20,-219,-59)"/>
<path style="fill:none;stroke-width:0.1;stroke-linecap:butt;stroke-linejoin:miter;stroke:rgb(0%,0%,0%);stroke-opacity:1;stroke-miterlimit:10;" d="M 27 34 L 21.486719 34 " transform="matrix(20,0,0,20,-219,-59)"/>
<path style="fill-rule:evenodd;fill:rgb(0%,0%,0%);fill-opacity:1;stroke-width:0.1;stroke-linecap:butt;stroke-linejoin:miter;stroke:rgb(0%,0%,0%);stroke-opacity:1;stroke-miterlimit:10;" d="M 21.111719 34 L 21.611719 33.75 L 21.486719 34 L 21.611719 34.25 Z M 21.111719 34 " transform="matrix(20,0,0,20,-219,-59)"/>
<path style="fill:none;stroke-width:0.1;stroke-linecap:butt;stroke-linejoin:miter;stroke:rgb(0%,0%,0%);stroke-opacity:1;stroke-miterlimit:10;" d="M 20.840039 28.630078 L 26.770508 33.07793 " transform="matrix(20,0,0,20,-219,-59)"/>
<path style="fill-rule:evenodd;fill:rgb(0%,0%,0%);fill-opacity:1;stroke-width:0.1;stroke-linecap:butt;stroke-linejoin:miter;stroke:rgb(0%,0%,0%);stroke-opacity:1;stroke-miterlimit:10;" d="M 27.070508 33.30293 L 26.520508 33.20293 L 26.770508 33.07793 L 26.820508 32.80293 Z M 27.070508 33.30293 " transform="matrix(20,0,0,20,-219,-59)"/>
</g>
</svg>
